<svg id="Capa_1" enable-background="new 0 0 512 512" height="512" viewBox="0 0 512 512" width="512" xmlns="http://www.w3.org/2000/svg"><g><path d="m149.32 88.748c5.523 0 10-4.478 10-10v-25.88c0-5.522-4.477-10-10-10s-10 4.478-10 10v25.88c0 5.523 4.477 10 10 10z"/><path d="m45.88 192.191c0-5.522-4.477-10-10-10h-25.88c-5.523 0-10 4.478-10 10s4.477 10 10 10h25.88c5.523 0 10-4.477 10-10z"/><path d="m62.03 119.042c1.953 1.952 4.512 2.929 7.071 2.929s5.119-.977 7.071-2.929c3.905-3.905 3.906-10.237 0-14.143l-18.311-18.312c-3.905-3.903-10.237-3.904-14.142 0-3.905 3.905-3.906 10.237 0 14.143z"/><path d="m229.539 121.971c2.562 0 5.124-.979 7.077-2.935l18.283-18.312c3.902-3.908 3.897-10.24-.011-14.143-3.908-3.9-10.24-3.896-14.142.012l-18.283 18.312c-3.902 3.908-3.897 10.24.011 14.143 1.952 1.948 4.508 2.923 7.065 2.923z"/><path d="m43.724 283.62c-3.908 3.902-3.913 10.233-.011 14.142 1.953 1.956 4.515 2.935 7.077 2.935 2.557 0 5.114-.975 7.065-2.924l18.312-18.283c3.908-3.902 3.913-10.233.011-14.142-3.902-3.907-10.234-3.912-14.142-.011z"/><path d="m433.074 240.809c-8.566-34.612-39.995-59.751-76.404-59.751-10.922 0-21.723 2.283-31.67 6.652-15.921-17.368-38.081-27.175-61.984-27.175-13.423 0-26.335 3.111-38.04 9.063-4.04-13.565-11.685-25.882-22.314-35.628-14.591-13.378-33.535-20.746-53.341-20.746-43.542 0-78.966 35.425-78.966 78.967 0 32.188 19.844 60.936 48.786 72.969-8.165 14.378-12.446 30.539-12.446 47.448 0 1.425.041 2.851.102 4.276-12.625 7.052-22.35 18.85-26.55 33.125-30.04 3.1-53.544 28.558-53.544 59.403 0 32.93 26.79 59.72 59.719 59.72h150.347c34.792 0 63.545-26.272 67.49-60.01h36.455c5.523 0 10-4.478 10-10s-4.477-10-10-10h-37.077c-4.774-26.162-24.746-47.646-50.857-53.979-8.539-23.323-30.739-39.11-56.064-39.11-15.879 0-31.175 6.459-42.312 17.592-6.473-2.529-13.396-3.844-20.389-3.844-2.46 0-4.887.167-7.272.48.482-16.294 5.968-31.636 15.966-44.5 12.301-15.85 29.937-26.118 49.657-28.914 4.045-.574 7.335-3.551 8.308-7.52 3.451-14.068 11.755-26.723 23.374-35.624 11.272-8.614 24.748-13.167 38.97-13.167 20.391 0 39.122 9.362 51.391 25.687 3.037 4.039 8.608 5.18 12.985 2.658 8.885-5.117 19.01-7.822 29.279-7.822 29.364 0 54.385 21.913 58.2 50.972.682 5.193 5.256 8.982 10.485 8.682.799-.045 1.608-.068 2.407-.068 35.421 0 64.238 28.818 64.238 64.24 0 34.723-27.172 62.931-61.859 64.218-5.52.205-9.827 4.845-9.623 10.364.2 5.393 4.635 9.629 9.986 9.629.125 0 .251-.002.377-.007 21.838-.811 42.243-9.928 57.457-25.672 15.256-15.792 23.659-36.579 23.659-58.534 0-44.667-34.94-81.326-78.926-84.074zm-299.061 88.971c6.295 0 12.5 1.656 17.943 4.79 4.375 2.519 9.942 1.381 12.978-2.652 7.601-10.096 19.185-15.886 31.78-15.886 18.316 0 34.175 12.412 38.565 30.185.978 3.96 4.263 6.929 8.301 7.502 23.461 3.334 41.154 23.743 41.154 47.473 0 26.435-21.518 47.94-47.968 47.94h-150.346c-21.901 0-39.719-17.818-39.719-39.72s17.818-39.72 39.719-39.72c.508 0 1.015.025 1.522.047 5.194.238 9.671-3.544 10.348-8.683 2.352-17.829 17.71-31.276 35.723-31.276zm49.075-111.596c-20.085 4.247-38.12 14.749-51.847 30.141-24.004-7.74-40.887-30.471-40.887-56.133 0-32.515 26.452-58.967 58.966-58.967 28.924 0 53.012 20.461 57.999 48.369-11.164 9.872-19.562 22.549-24.231 36.59z"/><path d="m384.591 389.122h-.057c-5.523 0-9.972 4.478-9.972 10s4.505 10 10.028 10 10-4.478 10-10-4.476-10-9.999-10z"/></g></svg>