<svg id="Capa_1" enable-background="new 0 0 512 512" height="512" viewBox="0 0 512 512" width="512" xmlns="http://www.w3.org/2000/svg"><g><path d="m426.477 110.67c-15.066-29.891-37.864-56.61-64.916-75.91-64.926-46.321-146.121-46.374-211.121 0-27.034 19.287-49.82 45.985-64.912 75.909-47.65 5.865-85.528 46.387-85.528 95.78 0 53.234 43.758 96.542 97.543 96.542h316.914c53.785 0 97.543-43.309 97.543-96.542 0-49.366-37.854-89.91-85.523-95.779zm-12.02 162.322c-18.892 0-302.843 0-316.914 0-37.243 0-67.543-29.851-67.543-66.543 0-35.695 29.486-65.523 65.729-66.492 5.762-.154 10.938-3.622 13.297-8.881 27.124-60.459 86.188-101.079 146.974-101.079 53.402 0 105.471 31.354 135.711 79.932-.121 0-63.816-.021-63.711-.021-8.281 0-14.997 6.713-15 14.995-.003 8.284 6.711 15.002 14.995 15.005 66.054.022 86.968.017 88.276.051 36.243.967 65.729 30.795 65.729 66.49 0 36.692-30.3 66.543-67.543 66.543z"/><path d="m133.571 338.069c-7.693-3.079-16.422.664-19.498 8.356l-16 40c-3.941 9.853 3.339 20.575 13.922 20.575 5.953 0 11.586-3.568 13.932-9.433l16-40c3.077-7.692-.664-16.421-8.356-19.498z"/><path d="m261.572 338.069c-7.694-3.079-16.422.664-19.498 8.356l-16 40c-3.942 9.853 3.339 20.575 13.922 20.575 5.953 0 11.586-3.568 13.932-9.433l16-40c3.076-7.692-.665-16.421-8.356-19.498z"/><path d="m181.453 442.023c-7.72-3.012-16.415.803-19.427 8.521l-16 41c-3.85 9.865 3.477 20.457 13.97 20.457 5.999 0 11.665-3.625 13.978-9.551l16-41c3.012-7.718-.803-16.415-8.521-19.427z"/><path d="m325.453 442.023c-7.719-3.012-16.415.803-19.427 8.521l-16 41c-3.85 9.865 3.477 20.457 13.97 20.457 5.999 0 11.665-3.625 13.978-9.551l16-41c3.012-7.718-.803-16.415-8.521-19.427z"/><path d="m389.572 338.069c-7.693-3.079-16.422.664-19.498 8.356l-16 40c-3.942 9.853 3.339 20.575 13.922 20.575 5.953 0 11.586-3.568 13.932-9.433l16-40c3.076-7.692-.665-16.421-8.356-19.498z"/></g></svg>