<?xml version="1.0" encoding="iso-8859-1"?>
<!-- Generator: Adobe Illustrator 19.0.0, SVG Export Plug-In . SVG Version: 6.00 Build 0)  -->
<svg version="1.1" id="Capa_1" xmlns="http://www.w3.org/2000/svg" xmlns:xlink="http://www.w3.org/1999/xlink" x="0px" y="0px"
	 viewBox="0 0 512 512" style="enable-background:new 0 0 512 512;" xml:space="preserve">
<g>
	<g>
		<path d="M256,112.071c-79.363,0-143.929,64.566-143.929,143.929c0,9.886,1.008,19.766,3,29.364
			c1.12,5.405,6.414,8.881,11.816,7.757c5.405-1.12,8.879-6.411,7.757-11.816c-1.713-8.266-2.583-16.78-2.583-25.305
			c0-68.34,55.598-123.939,123.939-123.939S379.938,187.66,379.938,256S324.34,379.938,256,379.938
			c-36.975,0-71.744-16.332-95.394-44.808c-3.526-4.247-9.828-4.83-14.075-1.303c-4.247,3.526-4.831,9.828-1.303,14.075
			c27.459,33.064,67.834,52.026,110.772,52.026c79.363,0,143.929-64.566,143.929-143.929S335.363,112.071,256,112.071z"/>
	</g>
</g>
<g>
	<g>
		<path d="M256,0c-5.52,0-9.995,4.475-9.995,9.995V75.13c0,5.52,4.475,9.995,9.995,9.995s9.995-4.475,9.995-9.995V9.995
			C265.995,4.475,261.52,0,256,0z"/>
	</g>
</g>
<g>
	<g>
		<path d="M256,426.875c-5.52,0-9.995,4.475-9.995,9.995v65.135c0,5.52,4.475,9.995,9.995,9.995s9.995-4.475,9.995-9.995V436.87
			C265.995,431.35,261.52,426.875,256,426.875z"/>
	</g>
</g>
<g>
	<g>
		<path d="M502.005,246.005H436.87c-5.52,0-9.995,4.475-9.995,9.995s4.475,9.995,9.995,9.995h65.135c5.52,0,9.995-4.475,9.995-9.995
			S507.525,246.005,502.005,246.005z"/>
	</g>
</g>
<g>
	<g>
		<path d="M75.13,246.005H9.995C4.475,246.005,0,250.48,0,256s4.475,9.995,9.995,9.995H75.13c5.52,0,9.995-4.475,9.995-9.995
			S80.65,246.005,75.13,246.005z"/>
	</g>
</g>
<g>
	<g>
		<path d="M437.02,74.98c-3.904-3.902-10.233-3.902-14.136,0l-46.057,46.057c-3.903,3.904-3.903,10.233,0,14.136
			c1.951,1.951,4.51,2.928,7.068,2.928s5.116-0.977,7.068-2.928l46.057-46.057C440.923,85.212,440.923,78.883,437.02,74.98z"/>
	</g>
</g>
<g>
	<g>
		<path d="M135.174,376.826c-3.904-3.902-10.233-3.902-14.136,0l-46.057,46.057c-3.903,3.904-3.903,10.233,0,14.136
			c1.951,1.951,4.51,2.928,7.068,2.928s5.116-0.977,7.068-2.928l46.057-46.057C139.077,387.058,139.077,380.729,135.174,376.826z"/>
	</g>
</g>
<g>
	<g>
		<path d="M437.02,422.883l-46.057-46.057c-3.904-3.902-10.233-3.902-14.136,0c-3.903,3.904-3.903,10.233,0,14.136l46.057,46.057
			c1.951,1.951,4.51,2.928,7.068,2.928c2.558,0,5.116-0.977,7.068-2.928C440.923,433.115,440.923,426.786,437.02,422.883z"/>
	</g>
</g>
<g>
	<g>
		<path d="M135.174,121.037L89.117,74.98c-3.904-3.902-10.233-3.902-14.136,0c-3.903,3.904-3.903,10.233,0,14.136l46.057,46.057
			c1.951,1.951,4.51,2.928,7.068,2.928c2.558,0,5.116-0.977,7.068-2.928C139.077,131.269,139.077,124.94,135.174,121.037z"/>
	</g>
</g>
<g>
	<g>
		<path d="M143.106,308.537c-1.859-1.859-4.438-2.929-7.067-2.929s-5.207,1.069-7.066,2.929c-1.859,1.859-2.929,4.428-2.929,7.066
			c0,2.629,1.069,5.207,2.929,7.067c1.859,1.859,4.438,2.929,7.066,2.929s5.207-1.069,7.067-2.929s2.929-4.438,2.929-7.067
			C146.035,312.975,144.965,310.396,143.106,308.537z"/>
	</g>
</g>
<g>
	<g>
		<path d="M353.513,249.205c-1.5-21.814-10.447-42.755-25.193-58.963c-3.714-4.083-10.035-4.382-14.119-0.667
			c-4.082,3.714-4.382,10.036-0.667,14.119c11.727,12.892,18.843,29.541,20.035,46.882c0.362,5.273,4.754,9.309,9.961,9.309
			c0.23,0,0.463-0.008,0.696-0.023C349.733,259.484,353.891,254.713,353.513,249.205z"/>
	</g>
</g>
<g>
	<g>
		<path d="M350.813,280.791c-1.859-1.859-4.428-2.929-7.066-2.929c-2.629,0-5.207,1.07-7.067,2.929
			c-1.859,1.859-2.929,4.438-2.929,7.067s1.069,5.207,2.929,7.067c1.859,1.859,4.438,2.929,7.067,2.929
			c2.639,0,5.207-1.07,7.066-2.929c1.869-1.859,2.929-4.438,2.929-7.067S352.682,282.65,350.813,280.791z"/>
	</g>
</g>
<g>
</g>
<g>
</g>
<g>
</g>
<g>
</g>
<g>
</g>
<g>
</g>
<g>
</g>
<g>
</g>
<g>
</g>
<g>
</g>
<g>
</g>
<g>
</g>
<g>
</g>
<g>
</g>
<g>
</g>
</svg>
